<?xml version="1.0" encoding="UTF-8"?>
<svg id="Layer_2" data-name="Layer 2" xmlns="http://www.w3.org/2000/svg" viewBox="0 0 203.64 72.61">
  <defs>
    <style>
      .cls-1 {
        fill: #2f2f2f;
      }

      .cls-2 {
        fill: #ffb702;
      }
    </style>
  </defs>
  <g id="Layer_1-2" data-name="Layer 1">
    <g id="Logo">
      <g>
        <path class="cls-2" d="M0,0h24.9c10.32,0,17.68,1.53,22.07,4.59,4.39,3.06,6.59,7.45,6.59,13.18,0,3.12-.56,5.78-1.68,7.96-1.12,2.18-2.54,3.91-4.25,5.18s-3.46,2.13-5.25,2.59v.49c1.95.49,3.9,1.29,5.83,2.42,1.94,1.12,3.55,2.8,4.83,5.03,1.29,2.23,1.93,5.25,1.93,9.06,0,4.33-1.1,8.06-3.3,11.18s-5.33,5.53-9.4,7.2c-4.07,1.68-8.9,2.51-14.5,2.51H0V0ZM19.29,27.39h5.81c3.19,0,5.44-.66,6.74-1.98,1.3-1.32,1.95-2.92,1.95-4.81s-.74-3.44-2.22-4.47c-1.48-1.03-3.77-1.54-6.86-1.54h-5.42v12.79ZM19.29,41.5v14.99h6.79c3.35,0,5.7-.72,7.03-2.17,1.33-1.45,2-3.26,2-5.44,0-1.27-.29-2.47-.85-3.59-.57-1.12-1.54-2.03-2.91-2.73-1.37-.7-3.26-1.05-5.66-1.05h-6.4Z"/>
        <path class="cls-2" d="M80.77,0c6.48,0,11.87.79,16.16,2.37,4.3,1.58,7.53,3.93,9.69,7.06,2.16,3.12,3.25,7.02,3.25,11.67,0,2.9-.49,5.53-1.46,7.91-.98,2.38-2.37,4.5-4.17,6.37-1.81,1.87-3.96,3.51-6.47,4.91l20.8,31.1h-21.88l-15.14-25.98h-4.88v25.98h-19.29V0h23.39ZM80.48,14.6h-3.81v16.31h3.61c2.96,0,5.39-.65,7.28-1.95,1.89-1.3,2.83-3.63,2.83-6.98,0-2.31-.78-4.12-2.34-5.42-1.56-1.3-4.09-1.95-7.57-1.95Z"/>
        <path class="cls-2" d="M175.75,0v42.97c0,5.99-1.14,11.19-3.42,15.6-2.28,4.41-5.7,7.81-10.25,10.21s-10.27,3.59-17.14,3.59c-9.83,0-17.33-2.52-22.51-7.57-5.18-5.05-7.76-12.17-7.76-21.39V0h19.38v41.89c0,5.05.94,8.71,2.83,10.99,1.89,2.28,4.67,3.42,8.35,3.42,2.64,0,4.79-.5,6.45-1.49,1.66-.99,2.87-2.56,3.64-4.71s1.15-4.92,1.15-8.3V0h19.29Z"/>
        <path class="cls-2" d="M177.23,63.28c0-3.45,1.02-5.88,3.05-7.28,2.03-1.4,4.48-2.1,7.35-2.1,2.7,0,5.05.7,7.03,2.1,1.99,1.4,2.98,3.83,2.98,7.28s-.99,5.66-2.98,7.13-4.33,2.2-7.03,2.2c-2.86,0-5.31-.73-7.35-2.2s-3.05-3.84-3.05-7.13Z"/>
      </g>
      <g>
        <path class="cls-1" d="M6,0h24.9c10.32,0,17.68,1.53,22.07,4.59,4.39,3.06,6.59,7.45,6.59,13.18,0,3.12-.56,5.78-1.68,7.96-1.12,2.18-2.54,3.91-4.25,5.18s-3.46,2.13-5.25,2.59v.49c1.95.49,3.9,1.29,5.83,2.42,1.94,1.12,3.55,2.8,4.83,5.03,1.29,2.23,1.93,5.25,1.93,9.06,0,4.33-1.1,8.06-3.3,11.18s-5.33,5.53-9.4,7.2c-4.07,1.68-8.9,2.51-14.5,2.51H6V0ZM25.29,27.39h5.81c3.19,0,5.44-.66,6.74-1.98,1.3-1.32,1.95-2.92,1.95-4.81s-.74-3.44-2.22-4.47c-1.48-1.03-3.77-1.54-6.86-1.54h-5.42v12.79ZM25.29,41.5v14.99h6.79c3.35,0,5.7-.72,7.03-2.17,1.33-1.45,2-3.26,2-5.44,0-1.27-.29-2.47-.85-3.59-.57-1.12-1.54-2.03-2.91-2.73-1.37-.7-3.26-1.05-5.66-1.05h-6.4Z"/>
        <path class="cls-1" d="M86.77,0c6.48,0,11.87.79,16.16,2.37,4.3,1.58,7.53,3.93,9.69,7.06,2.16,3.12,3.25,7.02,3.25,11.67,0,2.9-.49,5.53-1.46,7.91-.98,2.38-2.37,4.5-4.17,6.37-1.81,1.87-3.96,3.51-6.47,4.91l20.8,31.1h-21.88l-15.14-25.98h-4.88v25.98h-19.29V0h23.39ZM86.48,14.6h-3.81v16.31h3.61c2.96,0,5.39-.65,7.28-1.95,1.89-1.3,2.83-3.63,2.83-6.98,0-2.31-.78-4.12-2.34-5.42-1.56-1.3-4.09-1.95-7.57-1.95Z"/>
        <path class="cls-1" d="M181.75,0v42.97c0,5.99-1.14,11.19-3.42,15.6-2.28,4.41-5.7,7.81-10.25,10.21s-10.27,3.59-17.14,3.59c-9.83,0-17.33-2.52-22.51-7.57-5.18-5.05-7.76-12.17-7.76-21.39V0h19.38v41.89c0,5.05.94,8.71,2.83,10.99,1.89,2.28,4.67,3.42,8.35,3.42,2.64,0,4.79-.5,6.45-1.49,1.66-.99,2.87-2.56,3.64-4.71s1.15-4.92,1.15-8.3V0h19.29Z"/>
        <path class="cls-1" d="M183.23,63.28c0-3.45,1.02-5.88,3.05-7.28,2.03-1.4,4.48-2.1,7.35-2.1,2.7,0,5.05.7,7.03,2.1,1.99,1.4,2.98,3.83,2.98,7.28s-.99,5.66-2.98,7.13-4.33,2.2-7.03,2.2c-2.86,0-5.31-.73-7.35-2.2s-3.05-3.84-3.05-7.13Z"/>
      </g>
    </g>
  </g>
</svg>